<svg xmlns="http://www.w3.org/2000/svg"  viewBox="0 0 24 24" width="512px" height="512px"><path fill="#5B5B5B" d="M6.5,19C7.878,19,9,17.879,9,16.5v-4C9,12.224,8.776,12,8.5,12h-3C5.224,12,5,12.224,5,12.5S5.224,13,5.5,13	H8v3.5C8,17.327,7.327,18,6.5,18S5,17.327,5,16.5C5,16.224,4.776,16,4.5,16S4,16.224,4,16.5C4,17.879,5.122,19,6.5,19z"/><path fill="#5B5B5B" d="M13.264,18H11.5c-0.276,0-0.5-0.225-0.5-0.5c0-0.276-0.224-0.5-0.5-0.5S10,17.224,10,17.5	c0,0.827,0.673,1.5,1.5,1.5h1.764C14.221,19,15,18.221,15,17.264c0-0.661-0.367-1.256-0.959-1.553l-2.633-1.316	C11.156,14.269,11,14.017,11,13.736C11,13.33,11.33,13,11.736,13H13.5c0.276,0,0.5,0.225,0.5,0.5c0,0.276,0.224,0.5,0.5,0.5	s0.5-0.224,0.5-0.5c0-0.827-0.673-1.5-1.5-1.5h-1.764C10.779,12,10,12.779,10,13.736c0,0.661,0.367,1.256,0.959,1.553l2.633,1.316	C13.844,16.731,14,16.983,14,17.264C14,17.67,13.67,18,13.264,18z"/><path fill="#5B5B5B" d="M16.5,19c0.276,0,0.5-0.224,0.5-0.5V16h2c1.103,0,2-0.897,2-2s-0.897-2-2-2h-2.5c-0.276,0-0.5,0.224-0.5,0.5	v6C16,18.776,16.224,19,16.5,19z M17,13h2c0.551,0,1,0.448,1,1s-0.449,1-1,1h-2V13z"/><path fill="#5B5B5B" d="M4.5,24h16c0.276,0,0.5-0.224,0.5-0.5V21h1.5c0.276,0,0.5-0.224,0.5-0.5v-10c0-0.276-0.224-0.5-0.5-0.5H21	V1.5C21,1.224,20.776,1,20.5,1h-11C9.477,1,9.456,1.01,9.433,1.013C9.413,1.016,9.395,1.02,9.375,1.025	C9.29,1.047,9.21,1.083,9.146,1.146l-5,5C4.084,6.209,4.048,6.289,4.025,6.373c-0.006,0.022-0.01,0.041-0.012,0.063	C4.01,6.458,4,6.478,4,6.5V10H2.5C2.224,10,2,10.224,2,10.5v10C2,20.776,2.224,21,2.5,21H4v2.5C4,23.776,4.224,24,4.5,24z M20,23H5	v-2h15V23z M9,2.707V6H5.707L9,2.707z M5,7h4.5C9.776,7,10,6.776,10,6.5V2h10v8H5V7z M3,11h19v9H3V11z"/></svg>