<svg xmlns="http://www.w3.org/2000/svg" fill="none" viewBox="0 0 25 24" id="discord"><rect width="24" height="24" x=".463" fill="url(#paint0_linear_302_4745)" rx="8"></rect><path fill="#ffffff" fill-rule="evenodd" d="M9.81818 6C8.49052 6 7.48597 6.22405 6.38519 6.76449C6.32231 6.79537 6.26968 6.84375 6.23364 6.90382C5.47786 8.16345 4 11.6697 4 15.8182C4 15.9127 4.03675 16.0033 4.10247 16.0712C4.79396 16.7849 5.42337 17.31 6.09799 17.6805C6.77657 18.0532 7.48396 18.2604 8.32022 18.361C8.46257 18.3782 8.60169 18.31 8.67545 18.1871L9.04717 17.5676C8.50605 17.3785 7.95413 17.127 7.61431 16.7871C7.40129 16.5741 7.40129 16.2288 7.61431 16.0158C7.82732 15.8028 8.17268 15.8028 8.38569 16.0158C8.57099 16.2011 9.00637 16.4121 9.62121 16.6094L9.62195 16.6096L9.62208 16.6094C10.1301 16.7425 11.0153 16.9091 12 16.9091C12.9847 16.9091 13.8699 16.7425 14.3779 16.6094L14.378 16.6096C14.3783 16.6095 14.3785 16.6095 14.3788 16.6094C14.9936 16.4121 15.429 16.2011 15.6143 16.0158C15.8273 15.8028 16.1727 15.8028 16.3857 16.0158C16.5987 16.2288 16.5987 16.5741 16.3857 16.7871C16.0459 17.127 15.494 17.3785 14.9528 17.5676L15.3246 18.1871C15.3983 18.31 15.5375 18.3782 15.6798 18.361C16.5161 18.2604 17.2234 18.0532 17.902 17.6805C18.5767 17.31 19.206 16.7849 19.8975 16.0712C19.9633 16.0033 20 15.9127 20 15.8182C20 11.6697 18.5221 8.16345 17.7663 6.90382C17.7303 6.84375 17.6777 6.79537 17.6148 6.76449C16.514 6.22405 15.5095 6 14.1818 6C14.0253 6 13.8863 6.10016 13.8369 6.24865L13.5924 6.98209C13.5324 6.96273 13.4663 6.9426 13.3943 6.9225C13.0463 6.82527 12.558 6.72727 12 6.72727C11.442 6.72727 10.9537 6.82527 10.6057 6.9225C10.5338 6.9426 10.4675 6.96273 10.4076 6.98209L10.1632 6.24865C10.1137 6.10016 9.97471 6 9.81818 6ZM10.5455 12.7273C10.5455 13.4302 10.057 14 9.45455 14C8.85205 14 8.36364 13.4302 8.36364 12.7273C8.36364 12.0244 8.85205 11.4545 9.45455 11.4545C10.057 11.4545 10.5455 12.0244 10.5455 12.7273ZM14.5455 14C15.1479 14 15.6364 13.4302 15.6364 12.7273C15.6364 12.0244 15.1479 11.4545 14.5455 11.4545C13.943 11.4545 13.4545 12.0244 13.4545 12.7273C13.4545 13.4302 13.943 14 14.5455 14Z" clip-rule="evenodd" class="colorffffff svgShape"></path><defs><linearGradient id="paint0_linear_302_4745" x1=".463" x2="24.463" y1="12" y2="12" gradientUnits="userSpaceOnUse"><stop stop-color="#796bed" class="stopColored6d6b svgShape"></stop><stop offset="1" stop-color="#9990e2" class="stopColorf0b076 svgShape"></stop></linearGradient></defs></svg>