<?xml version="1.0" encoding="UTF-8"?>
<svg id="Layer_1" xmlns="http://www.w3.org/2000/svg" version="1.1" xmlns:xlink="http://www.w3.org/1999/xlink" viewBox="0 0 1683.77 376.27">
  <!-- Generator: Adobe Illustrator 30.3.0, SVG Export Plug-In . SVG Version: 2.1.3 Build 182)  -->
  <defs>
    <style>
      .st0 {
        fill: #c3161c;
      }

      .st1, .st2 {
        fill: #262c65;
      }

      .st3, .st4 {
        fill: #2e2c73;
      }

      .st3, .st2, .st5 {
        fill-rule: evenodd;
      }

      .st6, .st7 {
        fill: none;
      }

      .st8, .st5 {
        fill: #e77925;
      }

      .st7 {
        stroke: #2e2c73;
        stroke-miterlimit: 10;
        stroke-width: 2px;
      }

      .st9 {
        fill: #006838;
      }

      .st10 {
        fill: #292d70;
      }

      .st11 {
        fill: #ec1c24;
      }

      .st12 {
        fill: #90195a;
      }

      .st13 {
        clip-path: url(#clippath);
      }

      .st14 {
        fill: #262261;
      }
    </style>
    <clipPath id="clippath">
      <rect class="st6" x="-33.48" y="-18.73" width="1734.18" height="419"/>
    </clipPath>
  </defs>
  <rect class="st10" x="7.64" y="289.14" width="1669" height="2.74"/>
  <rect class="st10" x="7.64" y="361.77" width="1669" height="2.74"/>
  <g class="st13">
    <path class="st10" d="M73.08,310.98h28.89l.21,11.4h-1.59c-1.28-6.47-3.95-9.71-7.99-9.71h-.81v31.52h5.28v1.69h-19.08v-1.69h5.26v-31.52h-.78c-4.04,0-6.71,3.24-8.02,9.71h-1.59l.21-11.4Z"/>
    <polygon class="st10" points="161.35 328.78 149.85 328.78 149.85 344.18 154.28 344.18 154.28 345.88 136.89 345.88 136.89 344.18 141.32 344.18 141.32 312.67 136.89 312.67 136.89 310.98 154.28 310.98 154.28 312.67 149.85 312.67 149.85 326.95 161.35 326.95 161.35 312.67 156.98 312.67 156.98 310.98 174.32 310.98 174.32 312.67 169.89 312.67 169.89 344.18 174.32 344.18 174.32 345.88 156.98 345.88 156.98 344.18 161.35 344.18 161.35 328.78"/>
    <path class="st10" d="M222.22,312.67v14.76h1.12c3.63,0,5.73-2.06,6.3-6.17h1.69v14.26h-1.69c-.3-4.27-2.39-6.4-6.3-6.4h-1.12v15.07h5.96c5.26,0,8.69-3.25,10.31-9.76h1.8l-.73,11.45h-30.29v-1.69h4.42v-31.52h-4.42v-1.69h29.23l.47,9.73h-1.69c-1.1-3.3-2.46-5.46-4.08-6.49-1.62-1.03-3.77-1.55-6.43-1.55h-4.54Z"/>
    <path class="st10" d="M333.53,312.67v31.52h4.42v1.69h-17.54v-1.69h4.58v-31.52h-4.58v-1.69h17.54v1.69h-4.42ZM340.57,322.79l14.43,21.39h4.06v1.69h-18.35v-1.69h4.27l-11.14-16.67,11.58-11.86c.96-.97,1.43-1.68,1.43-2.13,0-.57-.68-.86-2.03-.86h-2.34v-1.69h13.33v1.69h-1.33c-1.56,0-2.78.2-3.67.61-.88.41-2.2,1.49-3.95,3.24l-6.29,6.27Z"/>
    <path class="st10" d="M404.56,310.98l13.83,20.51v-15.02c0-1.58-.16-2.61-.47-3.08-.31-.48-1.14-.72-2.47-.72h-1.64v-1.69h10.59v1.69h-1.22c-1.32,0-2.14.2-2.47.6-.33.4-.49,1.2-.49,2.39v30.68h-1.88l-20.66-30.68v25.22c0,1.41.15,2.31.44,2.71.3.4,1.11.6,2.45.6h2.03v1.69h-11.06v-1.69h1.38c1.41,0,2.25-.23,2.52-.7.28-.47.42-1.71.42-3.73v-24.09c0-1.32-.13-2.15-.38-2.49-.25-.34-.98-.51-2.2-.51h-1.9v-1.69h13.18Z"/>
    <path class="st10" d="M458.72,328.28c0-5.22,1.54-9.49,4.63-12.82,3.09-3.32,6.79-4.98,11.11-4.98,4.01,0,7.6,1.56,10.76,4.69,3.17,3.12,4.75,7.56,4.75,13.33,0,5.4-1.5,9.72-4.49,12.97-2.99,3.25-6.65,4.88-10.97,4.88-4.67,0-8.47-1.73-11.4-5.18-2.93-3.45-4.4-7.75-4.4-12.88M480.27,328.44c0-5.34-.1-8.87-.3-10.57-.2-1.7-.71-3.07-1.54-4.11-.82-1.04-2.18-1.56-4.07-1.56-1.6,0-2.87.42-3.81,1.26-.95.84-1.54,2.19-1.77,4.05-.23,1.86-.35,5.48-.35,10.88s.1,8.88.3,10.61c.2,1.73.73,3.1,1.59,4.13.86,1.02,2.21,1.54,4.05,1.54,1.53,0,2.77-.41,3.73-1.24.96-.82,1.57-2.16,1.81-4.02s.36-5.51.36-10.96"/>
    <path class="st10" d="M553.54,322.07l5.32,13.32,7.53-19s.14-.38.43-1.05c.29-.67.43-1.27.43-1.81,0-.57-.59-.86-1.77-.86h-1.77v-1.69h9.66v1.69h-.81c-1.41,0-2.26.13-2.58.4-.31.27-.8,1.24-1.46,2.9l-12.15,30.55h-1.71l-5.87-14.61-7.04,14.61h-1.72l-13.59-33.86h-3.72v-1.69h38.7v1.69h-.89c-1.13,0-1.89.15-2.29.44-.4.3-.92,1.11-1.56,2.45l-3.14,6.51ZM535.07,312.67l9.6,23.79,3.28-6.8-6.88-16.99h-6ZM549.78,312.67l2.87,7.19,2.27-4.69c.31-.64.47-1.15.47-1.54,0-.64-.51-.96-1.54-.96h-4.07Z"/>
    <path class="st10" d="M635.71,345.88h-29.31v-1.69h4.74v-31.52h-4.74v-1.69h18.48v1.69h-5.21v31.52h3.31c1.84,0,3.2-.1,4.07-.29.88-.19,1.85-.75,2.92-1.68,1.07-.93,1.97-2.1,2.71-3.51.74-1.41,1.39-2.97,1.97-4.67h1.61l-.55,11.84Z"/>
    <path class="st10" d="M683.75,312.67v14.76h1.12c3.63,0,5.73-2.06,6.3-6.17h1.69v14.26h-1.69c-.3-4.27-2.39-6.4-6.3-6.4h-1.12v15.07h5.96c5.26,0,8.69-3.25,10.31-9.76h1.8l-.73,11.45h-30.29v-1.69h4.42v-31.52h-4.42v-1.69h29.23l.47,9.73h-1.69c-1.1-3.3-2.46-5.46-4.08-6.49-1.62-1.03-3.77-1.55-6.43-1.55h-4.54Z"/>
    <path class="st10" d="M741.16,344.18v-31.52h-4.37v-1.69h17.7c5.12,0,9.17,1.62,12.15,4.87,2.98,3.24,4.48,7.34,4.48,12.28,0,2.57-.46,4.98-1.37,7.23-.91,2.26-2.31,4.31-4.2,6.16-1.89,1.85-3.83,3.04-5.82,3.57-1.99.53-4.43.79-7.33.79h-15.62v-1.69h4.37ZM749.7,312.67v31.52h2.76c4.22,0,6.76-1.24,7.64-3.71.88-2.47,1.31-6.71,1.31-12.7,0-4.69-.27-8.06-.81-10.11-.54-2.05-1.35-3.39-2.45-4.04-1.09-.64-2.48-.96-4.16-.96h-4.29Z"/>
    <path class="st10" d="M836.15,333.83v6.77c-4.08,3.83-8.48,5.75-13.22,5.75s-8.51-1.74-11.63-5.23c-3.12-3.49-4.68-7.73-4.68-12.73s1.65-9.32,4.95-12.75c3.3-3.44,7.09-5.15,11.37-5.15,3.17,0,6.07,1.07,8.69,3.2.59-.61,1.28-1.39,2.08-2.34h1.74v10.38h-1.74c-1.89-6.35-5.48-9.53-10.77-9.53-1.79,0-3.21.4-4.26,1.2-1.05.8-1.7,2.02-1.97,3.66-.26,1.64-.39,4.96-.39,9.95s.02,8.45.07,10.84c.04,2.39.57,4.09,1.57,5.11,1.01,1.02,2.52,1.54,4.56,1.54,1.6,0,2.76-.27,3.49-.82s1.17-1.27,1.33-2.17c.16-.9.23-2.29.23-4.16v-3.51h-4.68v-1.69h16.01v1.69h-2.73Z"/>
    <path class="st10" d="M885.77,312.67v14.76h1.12c3.63,0,5.73-2.06,6.3-6.17h1.69v14.26h-1.69c-.3-4.27-2.4-6.4-6.3-6.4h-1.12v15.07h5.96c5.26,0,8.69-3.25,10.31-9.76h1.8l-.73,11.45h-30.29v-1.69h4.42v-31.52h-4.42v-1.69h29.23l.47,9.73h-1.69c-1.1-3.3-2.46-5.46-4.08-6.49-1.62-1.03-3.77-1.55-6.43-1.55h-4.54Z"/>
    <path class="st10" d="M996.92,312.67v22.54c0,3.61.66,6.03,1.98,7.25,1.32,1.22,3.11,1.83,5.36,1.83,1.7,0,3.24-.32,4.61-.96s2.45-1.61,3.23-2.9c.78-1.29,1.17-3.49,1.17-6.6v-18.43c0-1.2-.08-1.95-.23-2.26-.16-.31-.89-.47-2.21-.47h-2.39v-1.69h11.14v1.69h-1.64c-1.3,0-2.1.15-2.39.46-.3.3-.44,1.13-.44,2.48v18.06c0,2.29-.22,4.3-.66,6.02-.44,1.73-1.61,3.27-3.51,4.62-1.9,1.35-4.83,2.03-8.78,2.03-2.08,0-4.11-.24-6.08-.72-1.97-.48-3.58-1.32-4.83-2.54-1.25-1.21-2.04-2.46-2.36-3.74-.32-1.27-.48-2.76-.48-4.46v-22.23h-4.58v-1.69h17.91v1.69h-4.79Z"/>
    <path class="st10" d="M1065.87,310.98l13.83,20.51v-15.02c0-1.58-.16-2.61-.47-3.08-.31-.48-1.14-.72-2.47-.72h-1.64v-1.69h10.59v1.69h-1.22c-1.32,0-2.14.2-2.47.6-.33.4-.49,1.2-.49,2.39v30.68h-1.88l-20.66-30.68v25.22c0,1.41.15,2.31.44,2.71.3.4,1.11.6,2.45.6h2.03v1.69h-11.06v-1.69h1.38c1.41,0,2.25-.23,2.52-.7.28-.47.42-1.71.42-3.73v-24.09c0-1.32-.13-2.15-.38-2.49-.25-.34-.98-.51-2.2-.51h-1.9v-1.69h13.18Z"/>
    <polygon class="st10" points="1132.64 312.67 1132.64 344.18 1137.37 344.18 1137.37 345.88 1119.52 345.88 1119.52 344.18 1124.1 344.18 1124.1 312.67 1119.52 312.67 1119.52 310.98 1137.37 310.98 1137.37 312.67 1132.64 312.67"/>
    <path class="st10" d="M1191.64,334.09l6-17.61c.5-1.3.75-2.18.75-2.63,0-.78-.82-1.17-2.46-1.17h-2.41v-1.69h10.75v1.69h-1.17c-1.09,0-1.79.16-2.09.48-.3.32-.71,1.19-1.21,2.62l-10.62,30.76h-1.6l-13.55-33.86h-2.91v-1.69h15.72v1.69h-3.75l8.55,21.42Z"/>
    <path class="st10" d="M1251.22,312.67v14.76h1.12c3.63,0,5.73-2.06,6.3-6.17h1.69v14.26h-1.69c-.3-4.27-2.39-6.4-6.3-6.4h-1.12v15.07h5.96c5.26,0,8.69-3.25,10.31-9.76h1.8l-.73,11.45h-30.29v-1.69h4.42v-31.52h-4.42v-1.69h29.23l.47,9.73h-1.69c-1.1-3.3-2.46-5.46-4.08-6.49-1.62-1.03-3.77-1.55-6.43-1.55h-4.54Z"/>
    <path class="st10" d="M1317.09,328.07v16.11h4.55v1.69h-17.49v-1.69h4.42v-31.52h-4.42v-1.69h17.49c5.6,0,9.43.86,11.48,2.58s3.07,3.56,3.07,5.52c0,2.08-.94,3.86-2.81,5.34-1.87,1.48-4.69,2.45-8.43,2.92v.1c2.83.71,4.94,1.65,6.34,2.82,1.4,1.17,2.27,2.46,2.63,3.89.35,1.42.55,3.12.57,5.08.03,1.97.19,3.19.49,3.66.3.47.86.7,1.68.7.9,0,1.88-.29,2.94-.86v1.98c-1.7.88-3.58,1.33-5.65,1.33-2.71,0-4.88-.68-6.51-2.03-1.63-1.35-2.5-3.81-2.61-7.37-.11-3.56-.58-5.87-1.39-6.95-.82-1.08-2.31-1.61-4.48-1.61h-1.87ZM1317.09,312.67v13.72h3.3c2.29,0,3.88-.42,4.76-1.26.89-.84,1.33-2.77,1.33-5.78s-.42-4.72-1.25-5.5c-.83-.78-2.28-1.17-4.35-1.17h-3.8Z"/>
    <path class="st10" d="M1394.46,311.13l.42,9.37h-2.08c-1.09-3.09-2.34-5.24-3.73-6.47-1.4-1.22-3.08-1.83-5.06-1.83-1.68,0-3.07.53-4.16,1.59-1.09,1.06-1.64,2.28-1.64,3.67,0,1.72.57,2.9,1.72,3.54,1.15.64,3.11,1.26,5.91,1.85,4.28.93,7.16,2.31,8.63,4.16,1.47,1.85,2.2,4.19,2.2,7.04,0,3.35-.97,6.23-2.9,8.66-1.94,2.43-4.65,3.64-8.13,3.64-2.48,0-4.72-.78-6.72-2.34-.97.76-1.85,1.51-2.63,2.24h-1.74v-10.18h2.03c1.53,5.73,4.49,8.59,8.9,8.59,2.32,0,4.11-.69,5.36-2.05,1.25-1.37,1.87-2.91,1.87-4.61,0-.96-.27-1.81-.82-2.58-.55-.76-1.18-1.37-1.91-1.82-.73-.45-2.74-1.02-6.04-1.7-3.29-.68-5.71-1.95-7.25-3.81-1.54-1.85-2.3-4.17-2.3-6.94,0-2.98.94-5.5,2.82-7.57,1.88-2.06,4.22-3.1,7.03-3.1,2.13,0,4.25.75,6.37,2.24.68-.4,1.4-.93,2.18-1.59h1.69Z"/>
    <polygon class="st10" points="1444.74 312.67 1444.74 344.18 1449.47 344.18 1449.47 345.88 1431.62 345.88 1431.62 344.18 1436.2 344.18 1436.2 312.67 1431.62 312.67 1431.62 310.98 1449.47 310.98 1449.47 312.67 1444.74 312.67"/>
    <path class="st10" d="M1483.9,310.98h28.89l.21,11.4h-1.59c-1.28-6.47-3.95-9.71-7.99-9.71h-.81v31.52h5.28v1.69h-19.08v-1.69h5.26v-31.52h-.78c-4.04,0-6.71,3.24-8.02,9.71h-1.59l.21-11.4Z"/>
    <path class="st10" d="M1547.19,310.98h16.32v1.69h-4.05l7.87,14.75,5.97-11.8c.09-.12.24-.46.47-1,.23-.55.34-.93.34-1.13,0-.54-.53-.81-1.59-.81h-1.4v-1.69h8.9v1.69c-1.42,0-2.37.17-2.87.51s-1.08,1.16-1.73,2.45l-7.26,14v14.56h5.39v1.69h-19.31v-1.69h5.39v-14.12l-9.92-17.4h-2.5v-1.69Z"/>
    <path class="st2" d="M895.46,202.69V60.95c-12.85.4-23.72,1.06-32.62,1.91-15.69,1.67-28.48,4.53-38.36,8.57l8.48-25.55,8.5-25.71h185.19l-6.99,24.79-6.99,24.86c-6.16-2.47-16.57-4.65-31.22-6.5-7.87-1.11-15.68-1.77-23.35-2.07v141.44c0,9.87.67,18.41,2.07,25.71,1.35,7.25,3.73,14.93,7.2,22.89h-81.19c3.49-7.96,5.85-15.63,7.3-22.89,1.29-7.3,1.98-15.83,1.98-25.71M736.5,202.69V68.75c0-10.53-.62-19.45-1.92-26.71-1.25-7.31-3.35-14.57-6.42-21.88h79.32c-3.07,7.2-5.17,14.41-6.42,21.72-1.29,7.25-1.92,16.23-1.92,26.86v133.94c0,10.65.63,19.61,1.92,26.86,1.25,7.33,3.36,14.52,6.42,21.73h-79.32c3.07-7.21,5.24-14.4,6.54-21.73,1.18-7.25,1.8-16.22,1.8-26.86M616.23,202.69V68.75c0-10.53-.61-19.45-1.91-26.71-1.25-7.31-3.37-14.57-6.42-21.88h79.32c-3.06,7.2-5.19,14.41-6.42,21.72-1.3,7.25-1.92,16.23-1.92,26.86v133.94c0,10.65.62,19.61,1.92,26.86,1.24,7.33,3.37,14.52,6.42,21.73h-79.32c3.05-7.21,5.23-14.4,6.52-21.73,1.2-7.25,1.81-16.22,1.81-26.86M429.85,251.29c3.04-7.21,5.17-14.4,6.42-21.73,1.29-7.25,1.92-16.22,1.92-26.86V68.75c0-10.63-.63-19.61-1.92-26.86-1.25-7.31-3.37-14.52-6.42-21.72h79.32c-3.07,7.2-5.19,14.41-6.42,21.72-1.3,7.25-1.92,16.23-1.92,26.86v141.35c13.26-.81,24.74-2.07,34.42-3.83,17.09-3.28,33.24-8.82,48.41-16.69l-13.05,30.86-13.21,30.84h-127.56ZM389.36,79.7c-7.88-6.41-14.91-10.99-21.07-13.66-6.21-2.71-12.59-4.08-19.16-4.08s-11.39,1.61-15.37,4.89c-3.99,3.22-6.01,7.36-6.01,12.4,0,5.29,1.4,10.08,4.25,14.32,2.85,4.14,7.87,8.98,15.17,14.47,17.61,13.32,30.39,25.76,38.41,37.41,7.97,11.49,11.96,23.39,11.96,35.68,0,21.78-7.44,39.62-22.36,53.49-14.91,13.86-34.12,20.83-57.57,20.83-11.49,0-21.19-.76-29.05-2.28-7.81-1.56-17.4-4.48-28.73-8.82v-58.78c5.54,7.32,12.84,13.27,21.74,17.85,8.96,4.59,17.75,6.86,26.35,6.86,6.98,0,12.68-2.06,17.08-6.14,4.4-4.08,6.57-9.38,6.57-15.88s-1.55-12.2-4.71-17.14c-3-4.79-8.59-10.29-16.67-16.39-17.13-12.91-29.56-24.79-37.32-35.73-7.82-10.84-11.7-21.73-11.7-32.77,0-20.37,7.19-37.05,21.54-50,14.34-12.95,32.82-19.41,55.39-19.41,8.3,0,17.25.87,26.93,2.58,9.64,1.77,17.76,3.93,24.34,6.59v53.74Z"/>
    <polyline class="st3" points="30.11 175.85 52.85 175.85 52.85 192.18 35.66 192.18"/>
    <polyline class="st3" points="59.59 175.85 82.14 175.85 82.14 192.18 59.59 192.18"/>
    <polyline class="st3" points="90.18 175.85 111.72 175.85 111.72 192.18 90.18 192.18"/>
    <polyline class="st3" points="118.47 175.85 141.57 175.85 141.57 192.18 118.47 192.18"/>
    <polyline class="st3" points="148.45 175.85 171.41 175.85 171.41 192.18 148.45 192.18"/>
    <polyline class="st3" points="37.01 200.59 52.85 200.59 52.85 218.53"/>
    <polyline class="st3" points="59.59 200.59 82.14 200.59 82.14 233.47 59.59 221.38"/>
    <polyline class="st3" points="90.18 200.59 111.44 200.73 111.72 245.24 90.18 236.9"/>
    <polyline class="st3" points="118.47 200.59 141.66 200.62 141.57 236.42 118.47 245.37"/>
    <polyline class="st3" points="148.45 200.59 171.41 200.59 171.41 222.12 148.45 233.47"/>
    <polyline class="st3" points="178.44 200.59 194.6 200.59 178.44 218.42"/>
    <polyline class="st3" points="178.44 175.85 203.16 175.85 198.68 192.18 178.44 192.18"/>
    <path class="st7" d="M20.57,15.61h190.24v160.52c.01,3.73-1.35,10.49-2.48,13.76-4.68,13.45-14.75,24.46-27.09,33.13-20.57,14.52-47.4,23.39-65.96,32.41-37.46-21.52-83.61-25.22-94.71-76.66V15.61Z"/>
    <path class="st5" d="M49.36,93.83h2.17l.46,23.95-2.75-.03-1.19-9.25-1.78-5.51c-.5-1.57-1.16-3.29-2.58-4.27-1.16-.8-3.07-.54-4.16.34-5.35,4.35-2.3,16.1.07,19.22,2.41,3.18,5.53,6.37,7.4,9.6,6.66,11.51,8.23,23.46,1.92,36.84-1.07,2.28-3.55,4.86-6.21,4.78-5.65-.16-8.84-8.75-9.06-4.53l-.29,5.43-2.43-.08-.27-19.05-.28-7.89,2.46.16c.14,2.03.29,4.07.43,6.11.29,2.03.83,4.08,1.24,6.1.54,2.7,3.06,9.2,6.78,9.2,5.06,0,5.65-5.85,5.65-9.08-.04-8.99-6.57-15.47-11.39-23.8-4.81-8.33-8.27-18.54-1.41-32.88,3.66-7.69,10.42-4.81,14.87-2.04"/>
    <polyline class="st5" points="91.5 97.97 84.88 97.16 84.77 93.49 111.56 93.35 111.63 96.95 103.82 97.93 103.98 162.47 111.55 164.38 111.58 167.47 84.93 167.6 84.78 164.74 91.67 162.73"/>
    <polyline class="st5" points="123.79 98.02 117.24 97.41 117.08 93.3 143.55 93.49 143.47 97.27 135.79 98.85 136.09 161.92 143.44 163.89 143.44 167.34 117.4 167.34 117.31 163.52 123.74 162.2 123.76 130.45"/>
    <path class="st5" d="M152.13,117.07l2.53-.42c.84-5.14,1.65-8.47,4.06-11.56,2.11-2.73,3.86-5.74,9.57-5.29l.3,62.48-6.62,2.97.16,1.23,28.47-.13-.04-1.17-7.72-3.22-.32-63.23c7.72.29,12.36,4.17,13.46,11.08l1.14,7.14,3.38.39v-22.48l-48.52.03"/>
    <path class="st5" d="M55.78,98.75l3.07,2.52.3,59.76-3.72,6.47,26.32.25.27-23.14-1.6,7.21c-.71,2.25-1.68,4.3-2.39,6.54l-2.46,3.98c-.55.87-4.16,1.85-5.55.75l-2.88-2.3-.24-59.7,3.87-2.61.58-3.14h-16.18"/>
    <path class="st8" d="M117.65,42.31c1.9-.34,5.05.43,7.51-.21,2.2-.57,4.64.34,6.54-.34.92-.33,2.88-.41,2.99-2.4.08-1.48-1.44-2.46-4.64-1.79-3.2.67-6.26.67-8.12-.37-1.86-1.05-2.07.67-1.86,1.28-1.65-1.25-1.16-2.4-.53-3.1-3.66-3.88.67-7.02,4.5-7.02s5.48,1.18,8.44,3.27c.86.61,2.72,2.55,3.34,2.19-.63-1.33,1.4-2.09,1.88-.52.37,1.2-.65,2.21-2.09,1.94-2.25-.42-2-1.52-4.5-3.04.56.42-.18,1.47,1.27,1.97-1.23.15-2.6-.71-2.99-1.84-.18,1.28-1.09,1.85-2.18,1.69,1.55-1.76.63-3.1-1.02-3.61,1.37,1.79-.11,3.58-2.04,3.58,1.55-1.55.84-3.04-.6-3.71-.5-.23-1.16-.27-.84.07.32.34.03,1.42-.63,1.62.04-1.25-1.84-.92-2.21,0-.3.74-.25,1.43.81,2.06.74-1.59,2.92-1.25,2.88-.47-1.83.3-1.51,1.72-.74,2.4.04-.67.88-1.28,1.37-1.05-.35,1.75,2.25,1.69,4.15,1.48,1.9-.2,4.22-.94,6.33.07,2.11,1.01,2.81,4.39-.14,6.01,2.95,3.31,1.69,6.82.42,10.26-1.24,3.38.07,5.53.84,5.53.53,0,.81.17.63.71-.39,1.2-1.9,1.11-1.97,2.56-.07,1.45,1.65,2.13.91,2.83-1.27,0-1.41-.18-1.78-.66-.26.42-.32.66-.93.66s-.9-.2-1.11-.66c-.31.51-.58.66-1.07.66-.56,0-.69-.23-.84-.66-.32.44-.72.66-1.34.66,0-1.79,2.11-2.13,2.85-2.26.74-.13.91-.54.91-.98s-.04-1.35-.11-2.23c-.1-1.25-1.68-1.99-3.21-2.94-.39.7-1.22,1.09-.59,2,.47.68,1.44.47,1.55.1.63,1.62-2.35,2.13-1.41,4.3.33.76.27,1.14-.17,1.99-.97,0-1.29-.06-1.73-.57-.28.46-.3.65-1.05.65-.67,0-.73-.42-.87-.74-.25.39-.26.65-.96.65-.62,0-.67-.18-.92-.65-.42.52-.91.67-1.46.65,0-1.28,1-2.02,2.13-1.89,1.13.14,1.65-.19,1.86-.83.21-.64-.18-1.25,0-2.4.36-2.33-3.54-4.05-2.81-6.88-4.04,0-6.97,2.6-9.47,3.1-.48.85-.95,1.58-1.22,2.03-.84,1.45.98,1.82,1.93,1.59-.28,1.16-1.25,1.85-2.14,2.02-.9.17-.91.61-.6,1.21.32.61.21,1.01-.54,2.05-1.51,0-1.53-.3-1.69-.55-.25.19-.35.55-1.05.55-.85,0-.87-.13-1.19-.55-.33.37-.37.55-1.04.55s-.71-.14-.91-.55c-.28.34-.46.55-1.27.55.76-4.34,3.41-.6,4.92-3.3.64-1.15-.2-2.76-.79-4.64-1.05-.44-2.02-.99-2.76-1.53-2.64,3.48-3.97.53-4.81-.17-.93-.78-1.28.05-1.13.52-.54-.57-.79-.96-.6-2.21.19-1.25-.49-1.48-1.9-1.65-1.41-.17-1.44-1.92-1.51-3.54-.07-1.62,2.57-1.15,2.81-.91,1.33,1.28,3.13,2.94,4.33,4.2-1.02-3.36.97-7.03,4.23-8.74,1.13-.59,1.32-1.28.77-1.64-.39-.25-1.14.51-.97.96-1.09-.52-.72-1.27-1.18-1.62.09.35-.25.91-.12,1.25-.18-.42-.72-.29-.93-1.21-.6.46-1.21.56-1.81.47.76-.3.4-.81.7-.96-.9.52-1.9.19-2.36.47.69-.47.33-1.86,1.2-2.55-.33-.2-.56-.44-.67-.71-.22-.57-.02-1.01,1.2-.32,1.27.72,3.09,1.32,4.99,1.38-.64-.95-1.47-1.36-1.63-2.38-.25.49-.25.86-.07,1.3-.23-.47-.93-.34-1.41-1.25.16.37,0,.74.21,1.06-1.46-.49-1.09-1.05-2.21-1.92-1.38-1.08-.83-1.5-1.16-2.04-.31-.49-.37-1.77.95-1.99,1.07-.18,1.67,1.15,1.05,1.69.46-.37,1.43-.09,2.13-.46,1-.52,1.7.4,2.79-1.01.39-.51-.23-.86-.05-1.2.11.47,2.02-.48,2.85.59.75.98,1.21-.51.63-1.3.54.52,1.69-.05,2.71,1.7-.04-.46.72-.88.39-1.57,1.05.29,1.84.72,2.13,1.16.4.64,1.69.42,2.2-.83.18,1.16-.28,1.99-1.27,3,1.02.94.9,2.44.72,3.31.02.04-.01-.05,0,0,.19.72-.2,2.12-.07,2.64-.03-.15-.17-.3-.37-.47-.16,1.26.74,1.75.4,2.68.07-.25-.31-.54-.81-.88-.16.93.4,1.97.88,2.04-.11.04-.22.07-.33.08.07.15.15.29.26.41"/>
    <path class="st8" d="M96.97,46.32c0-11.34.53-19.64,1.9-20.58-5.48,2.73-4.85,9.31-4.85,20.58l.69.57v5.33c-.44.2-.84-.69-1.32.07-.33.52.63,1.06,1.32.64-.02.51-.4,1.03-.79,1.18.84.62.97,2.09-.04,2.45.19-.27-.61-.84-.98-.27-.37.57.54,1.37,1.46,1.33-.02.27-.46.62-.91.81.23.13.84.27,1.27.24.03.51.11.91.58,1.25.47-.34.54-.74.58-1.25.42.03,1.04-.1,1.27-.24-.46-.19-.9-.54-.91-.81.91.03,1.83-.76,1.46-1.33-.37-.57-1.18,0-.98.27-1-.35-.88-1.82-.04-2.45-.39-.15-.77-.68-.79-1.18.44-.2.84.69,1.32-.07.33-.52-.63-1.06-1.32-.64v-5.33l1.1-.57Z"/>
    <path class="st8" d="M95.47,47.43c3.9,0,3.54-2.5,2.21-2.87-1.34-.37-1.42,1.15-.76,1.18-.16.51-.98.54-1.45.54s-1.29-.03-1.45-.54c.67-.03.58-1.55-.75-1.18-1.34.37-1.7,2.87,2.21,2.87"/>
    <path class="st8" d="M96.6,48.27c.15-.3.86-.4,1.02-.73.25.67-.19.71-.39,1.06-.07.13-.58.54-.97.17-.08-.08.21-.27.33-.51"/>
    <path class="st8" d="M95.39,47.6c.93.3,1.35.41,1.23.91-.13.56-.91.3-1.39.15-.47-.15-1.3-.24-1.25-.89.03-.42.79-.37,1.41-.17"/>
    <path class="st8" d="M96.6,49.27c.15-.3.86-.4,1.02-.73.25.67-.19.71-.39,1.06-.07.13-.58.54-.97.17-.08-.08.21-.27.33-.51"/>
    <path class="st8" d="M95.39,48.59c.93.3,1.35.41,1.23.91-.13.56-.91.3-1.39.15-.47-.15-1.61-.13-1.53-1.06.05-.62,1.08-.2,1.69,0"/>
    <path class="st8" d="M96.6,50.26c.15-.3.86-.41,1.02-.73.25.68-.19.71-.39,1.06-.07.13-.58.54-.97.17-.08-.08.21-.27.33-.51"/>
    <path class="st8" d="M95.39,49.59c.93.3,1.35.4,1.23.91-.13.56-.91.3-1.39.15-.47-.15-1.21-.03-1.18-.89.02-.42.72-.37,1.34-.17"/>
    <path class="st8" d="M96.6,51.17c.15-.3.86-.41,1.02-.73.25.67-.19.71-.39,1.06-.07.13-.58.54-.97.17-.08-.08.21-.27.33-.51"/>
    <path class="st8" d="M95.39,50.58c.93.3,1.35.4,1.23.91-.13.56-.91.3-1.39.15-.47-.15-.98-.22-.98-.83,0-.42.53-.43,1.14-.24"/>
    <rect class="st4" x="30.05" y="24.1" width="22.8" height="16.89"/>
    <rect class="st4" x="59.52" y="24.1" width="22.8" height="16.89"/>
    <rect class="st4" x="30.05" y="47.68" width="22.8" height="16.89"/>
    <rect class="st4" x="59.52" y="47.68" width="22.8" height="16.89"/>
    <rect class="st4" x="30.05" y="71.42" width="22.8" height="16.89"/>
    <rect class="st4" x="59.52" y="71.42" width="22.8" height="16.89"/>
    <rect class="st4" x="90.18" y="71.42" width="22.8" height="16.89"/>
    <rect class="st4" x="118.91" y="71.42" width="22.8" height="16.89"/>
    <rect class="st4" x="148.45" y="24.1" width="22.8" height="16.89"/>
    <rect class="st4" x="177.92" y="24.1" width="22.8" height="16.89"/>
    <rect class="st4" x="148.45" y="47.68" width="22.8" height="16.89"/>
    <rect class="st4" x="177.92" y="47.68" width="22.8" height="16.89"/>
    <rect class="st4" x="148.45" y="71.42" width="22.8" height="16.89"/>
    <rect class="st4" x="177.92" y="71.42" width="22.8" height="16.89"/>
    <polygon class="st1" points="1640.15 159.25 1581.92 159.25 1581.92 202.2 1559.11 202.2 1559.11 248.34 1663.71 248.34 1663.71 202.2 1640.15 202.2 1640.15 159.25"/>
    <polygon class="st1" points="1559.11 17.62 1559.11 63.76 1581.92 63.76 1581.92 111.25 1640.15 111.25 1640.15 63.76 1663.71 63.76 1663.71 17.62 1559.11 17.62"/>
    <path class="st1" d="M1226.01,160.28c0,11.99-2.99,21.12-8.97,27.37-5.98,6.26-14.75,9.39-26.3,9.39s-20.35-3.13-26.38-9.39c-6.03-6.26-9.05-15.38-9.05-27.37v-1.03h-58.23v9.32c0,25.97,8.39,46.51,25.16,61.63,16.77,15.12,39.61,22.68,68.49,22.68s51.87-7.56,68.64-22.68c16.77-15.12,25.16-35.67,25.16-61.63v-9.32h-58.53v1.03Z"/>
    <polygon class="st1" points="1097.08 111.25 1155.31 111.25 1155.31 63.76 1178.88 63.76 1178.88 17.62 1074.28 17.62 1074.28 63.76 1097.08 63.76 1097.08 111.25"/>
    <polygon class="st1" points="1202.59 17.62 1202.59 63.76 1226.01 63.76 1226.01 111.25 1284.54 111.25 1284.54 63.76 1306.89 63.76 1306.89 17.62 1202.59 17.62"/>
    <polygon class="st1" points="1339.73 111.25 1395.09 111.25 1395.07 109.28 1396.24 111.25 1451.66 111.25 1396.59 17.62 1316.92 17.62 1316.92 63.76 1339.73 63.76 1339.73 111.25"/>
    <polygon class="st1" points="1395.72 159.25 1339.73 159.25 1339.73 202.2 1316.92 202.2 1316.92 248.34 1420 248.34 1420 202.2 1396.28 202.2 1395.72 159.25"/>
    <polygon class="st1" points="1445.54 17.62 1445.54 63.76 1469.56 63.76 1470.63 111.25 1526.12 111.25 1526.12 63.76 1548.62 63.76 1548.62 17.62 1445.54 17.62"/>
    <polygon class="st1" points="1471.66 159.25 1424.73 159.25 1477.62 248.34 1526.12 248.34 1526.12 159.25 1480.02 159.25 1471.66 159.25"/>
    <rect class="st14" x="1105.56" y="129.83" width="37.04" height="9.94"/>
    <rect class="st11" x="1236.79" y="129.83" width="37.04" height="9.94"/>
    <rect class="st9" x="1349.17" y="129.83" width="37.04" height="9.94"/>
    <rect class="st12" x="1482.43" y="129.83" width="37.04" height="9.94"/>
    <rect class="st0" x="1592.42" y="129.83" width="37.04" height="9.94"/>
  </g>
</svg>